<mxfile host="app.diagrams.net" modified="2021-02-12T15:38:20.598Z" agent="5.0 (Windows NT 10.0; Win64; x64) AppleWebKit/537.36 (KHTML, like Gecko) Chrome/88.0.4324.150 Safari/537.36" etag="dR7Znn-r98-YQeYg0Rfi" version="14.3.1" type="github">
  <diagram id="W-XjO6lS5ifQV8LYXLU5" name="Page-1">
    <mxGraphModel dx="700" dy="748" grid="1" gridSize="10" guides="1" tooltips="1" connect="1" arrows="1" fold="1" page="1" pageScale="1" pageWidth="827" pageHeight="1169" math="0" shadow="0">
      <root>
        <mxCell id="0" />
        <mxCell id="1" parent="0" />
        <mxCell id="VRuH1pvmXJRrElLr02zH-1" value="" style="edgeStyle=orthogonalEdgeStyle;rounded=0;orthogonalLoop=1;jettySize=auto;html=1;" edge="1" parent="1" source="MudVOC_LyHgyW86bBqMA-3" target="MudVOC_LyHgyW86bBqMA-4">
          <mxGeometry relative="1" as="geometry" />
        </mxCell>
        <mxCell id="VRuH1pvmXJRrElLr02zH-2" value="" style="edgeStyle=orthogonalEdgeStyle;rounded=0;orthogonalLoop=1;jettySize=auto;html=1;" edge="1" parent="1" source="MudVOC_LyHgyW86bBqMA-3" target="MudVOC_LyHgyW86bBqMA-6">
          <mxGeometry relative="1" as="geometry" />
        </mxCell>
        <mxCell id="MudVOC_LyHgyW86bBqMA-3" value="Etikk ved Krig&amp;nbsp;" style="ellipse;whiteSpace=wrap;html=1;" parent="1" vertex="1">
          <mxGeometry x="170" y="350" width="120" height="80" as="geometry" />
        </mxCell>
        <mxCell id="MudVOC_LyHgyW86bBqMA-4" value="Personer" style="ellipse;whiteSpace=wrap;html=1;" parent="1" vertex="1">
          <mxGeometry x="10" y="350" width="120" height="80" as="geometry" />
        </mxCell>
        <mxCell id="VRuH1pvmXJRrElLr02zH-3" value="" style="edgeStyle=orthogonalEdgeStyle;rounded=0;orthogonalLoop=1;jettySize=auto;html=1;" edge="1" parent="1" source="MudVOC_LyHgyW86bBqMA-6" target="MudVOC_LyHgyW86bBqMA-8">
          <mxGeometry relative="1" as="geometry" />
        </mxCell>
        <mxCell id="MudVOC_LyHgyW86bBqMA-6" value="Metoder" style="ellipse;whiteSpace=wrap;html=1;" parent="1" vertex="1">
          <mxGeometry x="350" y="350" width="120" height="80" as="geometry" />
        </mxCell>
        <mxCell id="MudVOC_LyHgyW86bBqMA-8" value="Atomkrig" style="ellipse;whiteSpace=wrap;html=1;" parent="1" vertex="1">
          <mxGeometry x="350" y="470" width="120" height="80" as="geometry" />
        </mxCell>
      </root>
    </mxGraphModel>
  </diagram>
</mxfile>
